<svg width="75" height="75" viewBox="0 0 75 75" fill="none" xmlns="http://www.w3.org/2000/svg">
<circle cx="37.0375" cy="37.0376" r="37.0052" transform="rotate(0.050151 37.0375 37.0376)" fill="url(#paint0_linear_76_2)"/>
<path d="M45.75 28.5C45.05 28.5 44.5 27.95 44.5 27.25C44.5 26.55 45.05 26 45.75 26C46.45 26 47 26.55 47 27.25C47 27.95 46.45 28.5 45.75 28.5ZM43.25 28.5C42.55 28.5 42 27.95 42 27.25C42 26.55 42.55 26 43.25 26C43.95 26 44.5 26.55 44.5 27.25C44.5 27.95 43.95 28.5 43.25 28.5ZM30.75 28.5C30.05 28.5 29.5 27.95 29.5 27.25C29.5 26.55 30.05 26 30.75 26C31.45 26 32 26.55 32 27.25C32 27.95 31.45 28.5 30.75 28.5ZM28.25 28.5C27.55 28.5 27 27.95 27 27.25C27 26.55 27.55 26 28.25 26C28.95 26 29.5 26.55 29.5 27.25C29.5 27.95 28.95 28.5 28.25 28.5ZM43.25 31C42.55 31 42 30.45 42 29.75C42 29.05 42.55 28.5 43.25 28.5C43.95 28.5 44.5 29.05 44.5 29.75C44.5 30.45 43.95 31 43.25 31ZM30.75 31C30.05 31 29.5 30.45 29.5 29.75C29.5 29.05 30.05 28.5 30.75 28.5C31.45 28.5 32 29.05 32 29.75C32 30.45 31.45 31 30.75 31ZM28.25 31C27.55 31 27 30.45 27 29.75C27 29.05 27.55 28.5 28.25 28.5C28.95 28.5 29.5 29.05 29.5 29.75C29.5 30.45 28.95 31 28.25 31ZM45.75 31C45.05 31 44.5 30.45 44.5 29.75C44.5 29.05 45.05 28.5 45.75 28.5C46.45 28.5 47 29.05 47 29.75C47 30.45 46.45 31 45.75 31ZM45.75 33.5C45.05 33.5 44.5 32.95 44.5 32.25C44.5 31.55 45.05 31 45.75 31C46.45 31 47 31.55 47 32.25C47 32.95 46.45 33.5 45.75 33.5ZM30.75 33.5C30.05 33.5 29.5 32.95 29.5 32.25C29.5 31.55 30.05 31 30.75 31C31.45 31 32 31.55 32 32.25C32 32.95 31.45 33.5 30.75 33.5ZM28.25 33.5C27.55 33.5 27 32.95 27 32.25C27 31.55 27.55 31 28.25 31C28.95 31 29.5 31.55 29.5 32.25C29.5 32.95 28.95 33.5 28.25 33.5ZM43.25 33.5C42.55 33.5 42 32.95 42 32.25C42 31.55 42.55 31 43.25 31C43.95 31 44.5 31.55 44.5 32.25C44.5 32.95 43.95 33.5 43.25 33.5ZM30.75 36C30.05 36 29.5 35.45 29.5 34.75C29.5 34.05 30.05 33.5 30.75 33.5C31.45 33.5 32 34.05 32 34.75C32 35.45 31.45 36 30.75 36ZM28.25 36C27.55 36 27 35.45 27 34.75C27 34.05 27.55 33.5 28.25 33.5C28.95 33.5 29.5 34.05 29.5 34.75C29.5 35.45 28.95 36 28.25 36ZM43.25 36C42.55 36 42 35.45 42 34.75C42 34.05 42.55 33.5 43.25 33.5C43.95 33.5 44.5 34.05 44.5 34.75C44.5 35.45 43.95 36 43.25 36ZM45.75 36C45.05 36 44.5 35.45 44.5 34.75C44.5 34.05 45.05 33.5 45.75 33.5C46.45 33.5 47 34.05 47 34.75C47 35.45 46.45 36 45.75 36ZM30.75 38.5C30.05 38.5 29.5 37.95 29.5 37.25C29.5 36.55 30.05 36 30.75 36C31.45 36 32 36.55 32 37.25C32 37.95 31.45 38.5 30.75 38.5ZM28.25 38.5C27.55 38.5 27 37.95 27 37.25C27 36.55 27.55 36 28.25 36C28.95 36 29.5 36.55 29.5 37.25C29.5 37.95 28.95 38.5 28.25 38.5ZM43.25 38.5C42.55 38.5 42 37.95 42 37.25C42 36.55 42.55 36 43.25 36C43.95 36 44.5 36.55 44.5 37.25C44.5 37.95 43.95 38.5 43.25 38.5ZM45.75 38.5C45.05 38.5 44.5 37.95 44.5 37.25C44.5 36.55 45.05 36 45.75 36C46.45 36 47 36.55 47 37.25C47 37.95 46.45 38.5 45.75 38.5ZM30.75 41C30.05 41 29.5 40.45 29.5 39.75C29.5 39.05 30.05 38.5 30.75 38.5C31.45 38.5 32 39.05 32 39.75C32 40.45 31.45 41 30.75 41ZM28.25 41C27.55 41 27 40.45 27 39.75C27 39.05 27.55 38.5 28.25 38.5C28.95 38.5 29.5 39.05 29.5 39.75C29.5 40.45 28.95 41 28.25 41ZM43.25 41C42.55 41 42 40.45 42 39.75C42 39.05 42.55 38.5 43.25 38.5C43.95 38.5 44.5 39.05 44.5 39.75C44.5 40.45 43.95 41 43.25 41ZM45.75 41C45.05 41 44.5 40.45 44.5 39.75C44.5 39.05 45.05 38.5 45.75 38.5C46.45 38.5 47 39.05 47 39.75C47 40.45 46.45 41 45.75 41ZM30.75 43.5C30.05 43.5 29.5 42.95 29.5 42.25C29.5 41.55 30.05 41 30.75 41C31.45 41 32 41.55 32 42.25C32 42.95 31.45 43.5 30.75 43.5ZM43.25 43.5C42.55 43.5 42 42.95 42 42.25C42 41.55 42.55 41 43.25 41C43.95 41 44.5 41.55 44.5 42.25C44.5 42.95 43.95 43.5 43.25 43.5ZM28.25 43.5C27.55 43.5 27 42.95 27 42.25C27 41.55 27.55 41 28.25 41C28.95 41 29.5 41.55 29.5 42.25C29.5 42.95 28.95 43.5 28.25 43.5ZM45.75 43.5C45.05 43.5 44.5 42.95 44.5 42.25C44.5 41.55 45.05 41 45.75 41C46.45 41 47 41.55 47 42.25C47 42.95 46.45 43.5 45.75 43.5ZM30.75 46C30.05 46 29.5 45.45 29.5 44.75C29.5 44.05 30.05 43.5 30.75 43.5C31.45 43.5 32 44.05 32 44.75C32 45.45 31.45 46 30.75 46ZM43.25 46C42.55 46 42 45.45 42 44.75C42 44.05 42.55 43.5 43.25 43.5C43.95 43.5 44.5 44.05 44.5 44.75C44.5 45.45 43.95 46 43.25 46ZM33.25 46C32.55 46 32 45.45 32 44.75C32 44.05 32.55 43.5 33.25 43.5C33.95 43.5 34.5 44.05 34.5 44.75C34.5 45.45 33.95 46 33.25 46ZM40.75 46C40.05 46 39.5 45.45 39.5 44.75C39.5 44.05 40.05 43.5 40.75 43.5C41.45 43.5 42 44.05 42 44.75C42 45.45 41.45 46 40.75 46ZM28.25 46C27.55 46 27 45.45 27 44.75C27 44.05 27.55 43.5 28.25 43.5C28.95 43.5 29.5 44.05 29.5 44.75C29.5 45.45 28.95 46 28.25 46ZM45.75 46C45.05 46 44.5 45.45 44.5 44.75C44.5 44.05 45.05 43.5 45.75 43.5C46.45 43.5 47 44.05 47 44.75C47 45.45 46.45 46 45.75 46ZM43.25 48.5C42.55 48.5 42 47.95 42 47.25C42 46.55 42.55 46 43.25 46C43.95 46 44.5 46.55 44.5 47.25C44.5 47.95 43.95 48.5 43.25 48.5ZM30.75 48.5C30.05 48.5 29.5 47.95 29.5 47.25C29.5 46.55 30.05 46 30.75 46C31.45 46 32 46.55 32 47.25C32 47.95 31.45 48.5 30.75 48.5ZM40.75 48.5C40.05 48.5 39.5 47.95 39.5 47.25C39.5 46.55 40.05 46 40.75 46C41.45 46 42 46.55 42 47.25C42 47.95 41.45 48.5 40.75 48.5ZM38.25 48.5C37.55 48.5 37 47.95 37 47.25C37 46.55 37.55 46 38.25 46C38.95 46 39.5 46.55 39.5 47.25C39.5 47.95 38.95 48.5 38.25 48.5ZM35.75 48.5C35.05 48.5 34.5 47.95 34.5 47.25C34.5 46.55 35.05 46 35.75 46C36.45 46 37 46.55 37 47.25C37 47.95 36.45 48.5 35.75 48.5ZM33.25 48.5C32.55 48.5 32 47.95 32 47.25C32 46.55 32.55 46 33.25 46C33.95 46 34.5 46.55 34.5 47.25C34.5 47.95 33.95 48.5 33.25 48.5ZM33.25 51C32.55 51 32 50.45 32 49.75C32 49.05 32.55 48.5 33.25 48.5C33.95 48.5 34.5 49.05 34.5 49.75C34.5 50.45 33.95 51 33.25 51ZM35.75 51C35.05 51 34.5 50.45 34.5 49.75C34.5 49.05 35.05 48.5 35.75 48.5C36.45 48.5 37 49.05 37 49.75C37 50.45 36.45 51 35.75 51ZM38.25 51C37.55 51 37 50.45 37 49.75C37 49.05 37.55 48.5 38.25 48.5C38.95 48.5 39.5 49.05 39.5 49.75C39.5 50.45 38.95 51 38.25 51ZM40.75 51C40.05 51 39.5 50.45 39.5 49.75C39.5 49.05 40.05 48.5 40.75 48.5C41.45 48.5 42 49.05 42 49.75C42 50.45 41.45 51 40.75 51Z" fill="white"/>
<defs>
<linearGradient id="paint0_linear_76_2" x1="14.9632" y1="-4.9807" x2="48.0376" y2="79.9904" gradientUnits="userSpaceOnUse">
<stop stop-color="#8360C3"/>
<stop offset="1" stop-color="#2EBF91"/>
</linearGradient>
</defs>
</svg>
